<mxfile host="app.diagrams.net" modified="2023-07-17T10:44:59.535Z" agent="Mozilla/5.0 (X11; Linux x86_64) AppleWebKit/537.36 (KHTML, like Gecko) Chrome/105.0.0.0 Safari/537.36" etag="3qA66UeDHBVTjMoOKCh2" version="21.6.2" type="github">
  <diagram name="Page-1" id="maJyDL6N-Vcg3nqP2R7j">
    <mxGraphModel dx="778" dy="461" grid="1" gridSize="10" guides="1" tooltips="1" connect="1" arrows="1" fold="1" page="1" pageScale="1" pageWidth="850" pageHeight="1100" math="0" shadow="0">
      <root>
        <mxCell id="0" />
        <mxCell id="1" parent="0" />
        <mxCell id="Os0zF6pr7OaoKrKDBQwy-45" value="" style="rounded=0;whiteSpace=wrap;html=1;" vertex="1" parent="1">
          <mxGeometry x="390" y="220" width="300" height="230" as="geometry" />
        </mxCell>
        <mxCell id="Os0zF6pr7OaoKrKDBQwy-34" value="" style="edgeStyle=elbowEdgeStyle;rounded=0;orthogonalLoop=1;jettySize=auto;html=1;elbow=vertical;startArrow=none;endArrow=none;entryX=0.5;entryY=0;entryDx=0;entryDy=0;" edge="1" parent="1" source="Os0zF6pr7OaoKrKDBQwy-25" target="Os0zF6pr7OaoKrKDBQwy-35">
          <mxGeometry relative="1" as="geometry">
            <mxPoint x="465" y="350" as="targetPoint" />
          </mxGeometry>
        </mxCell>
        <mxCell id="Os0zF6pr7OaoKrKDBQwy-25" value="ESP32&lt;br&gt;マイクロコントローラ" style="whiteSpace=wrap;html=1;treeFolding=1;treeMoving=1;newEdgeStyle={&quot;edgeStyle&quot;:&quot;elbowEdgeStyle&quot;,&quot;startArrow&quot;:&quot;none&quot;,&quot;endArrow&quot;:&quot;none&quot;};strokeWidth=2;" vertex="1" parent="1">
          <mxGeometry x="400" y="290" width="130" height="40" as="geometry" />
        </mxCell>
        <mxCell id="Os0zF6pr7OaoKrKDBQwy-26" value="指紋センサ" style="whiteSpace=wrap;html=1;treeFolding=1;treeMoving=1;newEdgeStyle={&quot;edgeStyle&quot;:&quot;elbowEdgeStyle&quot;,&quot;startArrow&quot;:&quot;none&quot;,&quot;endArrow&quot;:&quot;none&quot;};strokeWidth=2;" vertex="1" parent="1">
          <mxGeometry x="550" y="372" width="130" height="40" as="geometry" />
        </mxCell>
        <mxCell id="Os0zF6pr7OaoKrKDBQwy-28" value="" style="edgeStyle=elbowEdgeStyle;rounded=0;orthogonalLoop=1;jettySize=auto;html=1;elbow=vertical;startArrow=none;endArrow=none;" edge="1" parent="1" source="Os0zF6pr7OaoKrKDBQwy-27" target="Os0zF6pr7OaoKrKDBQwy-25">
          <mxGeometry relative="1" as="geometry" />
        </mxCell>
        <mxCell id="Os0zF6pr7OaoKrKDBQwy-27" value="電源" style="whiteSpace=wrap;html=1;treeFolding=1;treeMoving=1;newEdgeStyle={&quot;edgeStyle&quot;:&quot;elbowEdgeStyle&quot;,&quot;startArrow&quot;:&quot;none&quot;,&quot;endArrow&quot;:&quot;none&quot;};strokeWidth=2;" vertex="1" parent="1">
          <mxGeometry x="400" y="230" width="130" height="40" as="geometry" />
        </mxCell>
        <mxCell id="Os0zF6pr7OaoKrKDBQwy-35" value="" style="shape=image;html=1;verticalAlign=top;verticalLabelPosition=bottom;labelBackgroundColor=#ffffff;imageAspect=0;aspect=fixed;image=https://cdn4.iconfinder.com/data/icons/essentials-71/24/008_-_Lock-128.png" vertex="1" parent="1">
          <mxGeometry x="433" y="348" width="64" height="64" as="geometry" />
        </mxCell>
        <mxCell id="Os0zF6pr7OaoKrKDBQwy-37" value="&lt;div style=&quot;text-align: center;&quot;&gt;&lt;span style=&quot;background-color: initial;&quot;&gt;鍵&lt;/span&gt;&lt;/div&gt;&lt;div style=&quot;text-align: center;&quot;&gt;(サーボモータ)&lt;/div&gt;" style="text;whiteSpace=wrap;html=1;" vertex="1" parent="1">
          <mxGeometry x="422.5" y="412" width="85" height="40" as="geometry" />
        </mxCell>
        <mxCell id="Os0zF6pr7OaoKrKDBQwy-43" style="edgeStyle=elbowEdgeStyle;rounded=0;orthogonalLoop=1;jettySize=auto;html=1;startArrow=none;endArrow=none;entryX=1;entryY=0.5;entryDx=0;entryDy=0;" edge="1" parent="1" source="Os0zF6pr7OaoKrKDBQwy-26" target="Os0zF6pr7OaoKrKDBQwy-25">
          <mxGeometry relative="1" as="geometry">
            <mxPoint x="610" y="320" as="targetPoint" />
            <Array as="points">
              <mxPoint x="610" y="340" />
            </Array>
          </mxGeometry>
        </mxCell>
        <mxCell id="Os0zF6pr7OaoKrKDBQwy-46" value="&lt;span style=&quot;color: rgb(0, 0, 0); font-family: Helvetica; font-size: 12px; font-style: normal; font-variant-ligatures: normal; font-variant-caps: normal; font-weight: 400; letter-spacing: normal; orphans: 2; text-align: center; text-indent: 0px; text-transform: none; widows: 2; word-spacing: 0px; -webkit-text-stroke-width: 0px; background-color: rgb(251, 251, 251); text-decoration-thickness: initial; text-decoration-style: initial; text-decoration-color: initial; float: none; display: inline !important;&quot;&gt;スマートロック&lt;/span&gt;" style="text;whiteSpace=wrap;html=1;" vertex="1" parent="1">
          <mxGeometry x="590" y="220" width="90" height="30" as="geometry" />
        </mxCell>
        <mxCell id="Os0zF6pr7OaoKrKDBQwy-47" value="" style="endArrow=classic;html=1;rounded=0;dashed=1;startArrow=classic;startFill=1;entryX=0;entryY=0.5;entryDx=0;entryDy=0;entryPerimeter=0;" edge="1" parent="1" target="Os0zF6pr7OaoKrKDBQwy-53">
          <mxGeometry relative="1" as="geometry">
            <mxPoint x="610" y="310" as="sourcePoint" />
            <mxPoint x="710" y="309.71000000000004" as="targetPoint" />
          </mxGeometry>
        </mxCell>
        <mxCell id="Os0zF6pr7OaoKrKDBQwy-48" value="無線通信" style="edgeLabel;resizable=0;html=1;align=center;verticalAlign=middle;fontSize=11;" connectable="0" vertex="1" parent="Os0zF6pr7OaoKrKDBQwy-47">
          <mxGeometry relative="1" as="geometry" />
        </mxCell>
        <mxCell id="Os0zF6pr7OaoKrKDBQwy-49" value="" style="endArrow=none;dashed=1;html=1;dashPattern=1 3;strokeWidth=2;rounded=0;" edge="1" parent="1">
          <mxGeometry width="50" height="50" relative="1" as="geometry">
            <mxPoint x="560" y="500" as="sourcePoint" />
            <mxPoint x="660" y="500" as="targetPoint" />
          </mxGeometry>
        </mxCell>
        <mxCell id="Os0zF6pr7OaoKrKDBQwy-53" value="" style="shape=mxgraph.signs.tech.computer;html=1;pointerEvents=1;fillColor=#000000;strokeColor=none;verticalLabelPosition=bottom;verticalAlign=top;align=center;" vertex="1" parent="1">
          <mxGeometry x="710" y="269" width="80" height="79" as="geometry" />
        </mxCell>
        <mxCell id="Os0zF6pr7OaoKrKDBQwy-54" value="&lt;span style=&quot;color: rgb(0, 0, 0); font-family: Helvetica; font-size: 12px; font-style: normal; font-variant-ligatures: normal; font-variant-caps: normal; font-weight: 400; letter-spacing: normal; orphans: 2; text-align: center; text-indent: 0px; text-transform: none; widows: 2; word-spacing: 0px; -webkit-text-stroke-width: 0px; background-color: rgb(251, 251, 251); text-decoration-thickness: initial; text-decoration-style: initial; text-decoration-color: initial; float: none; display: inline !important;&quot;&gt;PC&lt;br&gt;&lt;br&gt;&lt;/span&gt;" style="text;whiteSpace=wrap;html=1;" vertex="1" parent="1">
          <mxGeometry x="740" y="348" width="20" height="30" as="geometry" />
        </mxCell>
        <mxCell id="Os0zF6pr7OaoKrKDBQwy-55" value="" style="shape=image;html=1;verticalAlign=top;verticalLabelPosition=bottom;labelBackgroundColor=#ffffff;imageAspect=0;aspect=fixed;image=https://cdn0.iconfinder.com/data/icons/google-material-design-3-0/48/ic_fingerprint_48px-128.png" vertex="1" parent="1">
          <mxGeometry x="731" y="280" width="38" height="38" as="geometry" />
        </mxCell>
      </root>
    </mxGraphModel>
  </diagram>
</mxfile>
